<svg width="16" height="16" viewBox="0 0 16 16" fill="none" xmlns="http://www.w3.org/2000/svg">
<path fill-rule="evenodd" clip-rule="evenodd" d="M5.71322 7.25H10.6444C11.0383 7.25 11.3935 7.01474 11.572 6.63609C11.7745 6.20711 11.7154 5.69971 11.4204 5.34213L8.95484 2.3586C8.56156 1.88047 7.79607 1.88047 7.40279 2.3586L4.93661 5.34272C4.64224 5.69971 4.58371 6.20711 4.78562 6.63609C4.96412 7.01474 5.31936 7.25 5.71322 7.25ZM5.71322 8.75H10.6444C11.0383 8.75 11.3935 8.98526 11.572 9.36391C11.7745 9.79289 11.7154 10.3003 11.4204 10.6579L8.95484 13.6414C8.56156 14.1195 7.79607 14.1195 7.40279 13.6414L4.93661 10.6573C4.64224 10.3003 4.58371 9.79289 4.78562 9.36391C4.96412 8.98526 5.31936 8.75 5.71322 8.75Z" fill="#18203A"/>
<mask id="mask0_212_1338" style="mask-type:alpha" maskUnits="userSpaceOnUse" x="4" y="2" width="8" height="12">
<path fill-rule="evenodd" clip-rule="evenodd" d="M5.71322 7.25H10.6444C11.0383 7.25 11.3935 7.01474 11.572 6.63609C11.7745 6.20711 11.7154 5.69971 11.4204 5.34213L8.95484 2.3586C8.56156 1.88047 7.79607 1.88047 7.40279 2.3586L4.93661 5.34272C4.64224 5.69971 4.58371 6.20711 4.78562 6.63609C4.96412 7.01474 5.31936 7.25 5.71322 7.25ZM5.71322 8.75H10.6444C11.0383 8.75 11.3935 8.98526 11.572 9.36391C11.7745 9.79289 11.7154 10.3003 11.4204 10.6579L8.95484 13.6414C8.56156 14.1195 7.79607 14.1195 7.40279 13.6414L4.93661 10.6573C4.64224 10.3003 4.58371 9.79289 4.78562 9.36391C4.96412 8.98526 5.31936 8.75 5.71322 8.75Z" fill="white"/>
</mask>
<g mask="url(#mask0_212_1338)">
</g>
</svg>
