<svg width="115" height="16" viewBox="0 0 115 16" fill="none" xmlns="http://www.w3.org/2000/svg">
<path d="M6.24023 6.60156L9.21875 0.722656H12.4805L7.74414 9.44336V15H4.73633V9.54102L0 0.722656H3.28125L6.24023 6.60156ZM27.3863 7.8418C27.3863 10.2051 26.8004 12.0215 25.6285 13.291C24.4566 14.5605 22.777 15.1953 20.5895 15.1953C18.402 15.1953 16.7223 14.5605 15.5504 13.291C14.3785 12.0215 13.7926 10.1986 13.7926 7.82227C13.7926 5.44596 14.3785 3.63281 15.5504 2.38281C16.7288 1.1263 18.415 0.498047 20.609 0.498047C22.803 0.498047 24.4794 1.12956 25.6383 2.39258C26.8036 3.6556 27.3863 5.47201 27.3863 7.8418ZM16.9664 7.8418C16.9664 9.43685 17.2691 10.638 17.8746 11.4453C18.4801 12.2526 19.385 12.6562 20.5895 12.6562C23.0048 12.6562 24.2125 11.0514 24.2125 7.8418C24.2125 4.62565 23.0113 3.01758 20.609 3.01758C19.4046 3.01758 18.4964 3.42448 17.8844 4.23828C17.2724 5.04557 16.9664 6.24674 16.9664 7.8418ZM42.1164 0.722656V9.96094C42.1164 11.0156 41.8788 11.9401 41.4035 12.7344C40.9348 13.5286 40.2544 14.1374 39.3625 14.5605C38.4706 14.9837 37.4159 15.1953 36.1984 15.1953C34.3625 15.1953 32.9367 14.7266 31.9211 13.7891C30.9055 12.8451 30.3977 11.556 30.3977 9.92188V0.722656H33.4152V9.46289C33.4152 10.5632 33.6366 11.3704 34.0793 11.8848C34.522 12.3991 35.2544 12.6562 36.2766 12.6562C37.2661 12.6562 37.9823 12.3991 38.425 11.8848C38.8742 11.3639 39.0988 10.5501 39.0988 9.44336V0.722656H42.1164ZM48.7898 7.06055H49.7664C50.7234 7.06055 51.4298 6.90104 51.8855 6.58203C52.3413 6.26302 52.5691 5.76172 52.5691 5.07812C52.5691 4.40104 52.3348 3.91927 51.866 3.63281C51.4038 3.34635 50.6844 3.20312 49.7078 3.20312H48.7898V7.06055ZM48.7898 9.52148V15H45.7625V0.722656H49.9227C51.8628 0.722656 53.2983 1.07747 54.2293 1.78711C55.1603 2.49023 55.6258 3.5612 55.6258 5C55.6258 5.83984 55.3947 6.58854 54.9324 7.24609C54.4702 7.89714 53.8159 8.4082 52.9695 8.7793C55.118 11.9889 56.5177 14.0625 57.1688 15H53.8094L50.4012 9.52148H48.7898ZM59.1156 15V0.722656H62.143V12.5H67.934V15H59.1156ZM83.5332 7.8418C83.5332 10.2051 82.9473 12.0215 81.7754 13.291C80.6035 14.5605 78.9238 15.1953 76.7363 15.1953C74.5488 15.1953 72.8691 14.5605 71.6973 13.291C70.5254 12.0215 69.9395 10.1986 69.9395 7.82227C69.9395 5.44596 70.5254 3.63281 71.6973 2.38281C72.8757 1.1263 74.5618 0.498047 76.7559 0.498047C78.9499 0.498047 80.6263 1.12956 81.7852 2.39258C82.9505 3.6556 83.5332 5.47201 83.5332 7.8418ZM73.1133 7.8418C73.1133 9.43685 73.416 10.638 74.0215 11.4453C74.627 12.2526 75.5319 12.6562 76.7363 12.6562C79.1517 12.6562 80.3594 11.0514 80.3594 7.8418C80.3594 4.62565 79.1582 3.01758 76.7559 3.01758C75.5514 3.01758 74.6432 3.42448 74.0312 4.23828C73.4193 5.04557 73.1133 6.24674 73.1133 7.8418ZM92.0621 6.98242H97.7262V14.3848C96.8082 14.6842 95.9423 14.8926 95.1285 15.0098C94.3212 15.1335 93.4944 15.1953 92.648 15.1953C90.4931 15.1953 88.846 14.5638 87.7066 13.3008C86.5738 12.0312 86.0074 10.2116 86.0074 7.8418C86.0074 5.53711 86.665 3.74023 87.9801 2.45117C89.3017 1.16211 91.1311 0.517578 93.4684 0.517578C94.9332 0.517578 96.346 0.810547 97.7066 1.39648L96.7008 3.81836C95.6591 3.29753 94.5751 3.03711 93.4488 3.03711C92.1402 3.03711 91.0921 3.47656 90.3043 4.35547C89.5165 5.23438 89.1227 6.41602 89.1227 7.90039C89.1227 9.44987 89.4384 10.6348 90.0699 11.4551C90.7079 12.2689 91.6324 12.6758 92.8434 12.6758C93.4749 12.6758 94.1161 12.6107 94.7672 12.4805V9.50195H92.0621V6.98242ZM114.243 7.8418C114.243 10.2051 113.657 12.0215 112.486 13.291C111.314 14.5605 109.634 15.1953 107.446 15.1953C105.259 15.1953 103.579 14.5605 102.407 13.291C101.236 12.0215 100.65 10.1986 100.65 7.82227C100.65 5.44596 101.236 3.63281 102.407 2.38281C103.586 1.1263 105.272 0.498047 107.466 0.498047C109.66 0.498047 111.336 1.12956 112.495 2.39258C113.661 3.6556 114.243 5.47201 114.243 7.8418ZM103.823 7.8418C103.823 9.43685 104.126 10.638 104.732 11.4453C105.337 12.2526 106.242 12.6562 107.446 12.6562C109.862 12.6562 111.07 11.0514 111.07 7.8418C111.07 4.62565 109.868 3.01758 107.466 3.01758C106.262 3.01758 105.353 3.42448 104.741 4.23828C104.129 5.04557 103.823 6.24674 103.823 7.8418Z" fill="#0A0A0A"/>
</svg>
